# xmcd
#
# Track frame offsets: 
#        150
#        15609
#        33659
#        53302
#        71387
#        83996
#        100564
#        121442
#        143449
#        161349
#        175369
#        192690
#
# Disc length: 2858 seconds
#
# Revision: 0
# Processed by: cddbd v1.5.1PL0 Copyright (c) Steve Scherf et al.
# Submitted via: ExactAudioCopy v0.95a5
#
DISCID=940b280c
DTITLE=Jay, Dennis - What You See
DYEAR=2002
DGENRE=Country
TTITLE0=What You See
TTITLE1=Letters from Mexico
TTITLE2=One Good Simple Reason
TTITLE3=Eyes Full of Tears
TTITLE4=Tupelo Flash
TTITLE5=Betrayal
TTITLE6=Roadful of Longing
TTITLE7=Sorry Excuse for Love
TTITLE8=Lonesome By Any Other Name
TTITLE9=Did You Think That I'd Forgotten?
TTITLE10=Christmas In the Badlands
TTITLE11=Cancion para la Noche de Casamiento
EXTD=
EXTT0=
EXTT1=
EXTT2=
EXTT3=
EXTT4=
EXTT5=
EXTT6=
EXTT7=
EXTT8=
EXTT9=
EXTT10=
EXTT11=
PLAYORDER=
